<svg width="83px" height="83px" viewBox="0 0 83 83" version="1.1" xmlns="http://www.w3.org/2000/svg" xmlns:xlink="http://www.w3.org/1999/xlink">
    <!-- Copyright (c) 2025 Kevinleary.net, LLC. All rights reserved. -->
    <title>kevinleary.net</title>
    <circle fill="#FFFFFF" cx="41.5" cy="41.5" r="41.5"></circle>
    <path d="M41.4990862,5 C21.3735072,5 5,21.3753349 5,41.5009138 C5,61.6264928 21.3735072,78 41.5009138,78 C61.6264928,78 78,61.6264928 78,41.5009138 C78,21.3753349 61.6264928,5 41.4990862,5 Z M50.341036,59.1902962 L34.0314949,42.9703077 L33.9218386,43.0799639 L33.9218386,59.1902962 L30.0893523,59.1902962 L30.0893523,22.8904188 L33.9218386,22.8904188 L33.9218386,37.9517062 L49.2389906,22.8904188 L54.5006634,22.8904188 L36.7016248,40.400696 L55.5387427,59.1902962 L50.341036,59.1902962 Z" fill="#000000" fill-rule="nonzero"></path>
    <path d="M41.5,0 C18.5798958,0 0,18.5798958 0,41.5 C0,64.418375 18.5798958,83 41.5,83 C64.418375,83 83,64.4201042 83,41.5 C83,18.5798958 64.4201042,0 41.5,0 Z M41.5,80.2934783 C20.1078009,80.2934783 2.70652174,62.8907964 2.70652174,41.5009041 C2.70652174,20.1092036 20.1096092,2.70652174 41.5,2.70652174 C62.8903908,2.70652174 80.2934783,20.1092036 80.2934783,41.5009041 C80.2934783,62.8907964 62.8903908,80.2934783 41.5,80.2934783 Z" fill="#000000" fill-rule="nonzero"></path>
</svg>