<?xml version="1.0" encoding="UTF-8"?>
<svg width="760px" height="66px" viewBox="0 0 760 66" version="1.1" xmlns="http://www.w3.org/2000/svg" xmlns:xlink="http://www.w3.org/1999/xlink">
    <title>BASICWP</title>
    <g id="Page-1" stroke="none" stroke-width="1" fill="none" fill-rule="evenodd">
        <path d="M0,0.92 L0,64.216 L6.761,64.216 L23.966,64.216 C28.1313333,64.216 31.7144638,63.5075362 34.7153913,62.0906087 L35.121,61.893 C38.203,60.3443333 40.5643333,58.236 42.205,55.568 C43.8456667,52.9 44.666,49.8793333 44.666,46.506 C44.666,42.458 43.5083333,38.962 41.193,36.018 C39.4119744,33.7533846 37.1001795,31.9696371 34.2576154,30.6667574 L33.861,30.49 L33.9235217,30.4554348 C35.9056957,29.348913 37.525913,27.9782609 38.7841739,26.3434783 L39.031,26.013 C40.8863333,23.4523333 41.814,20.4086667 41.814,16.882 C41.814,13.846 41.101,11.132 39.675,8.74 C38.249,6.348 36.1636667,4.44666667 33.419,3.036 C30.6743333,1.62533333 27.324,0.92 23.368,0.92 L23.368,0.92 L6.762,0.92 L4.37,0.92 L0,0.92 Z M6.761,6.854 L23.23,6.854 C26.818,6.854 29.6853333,7.774 31.832,9.614 C33.9786667,11.454 35.052,14.0606667 35.052,17.434 C35.052,20.7766667 34.0553333,23.3756667 32.062,25.231 C30.0686667,27.0863333 27.37,28.014 23.966,28.014 L23.966,28.014 L6.761,28.014 L6.761,6.854 Z M6.761,33.856 L24.978,33.856 C27.5846667,33.856 29.854,34.3926667 31.786,35.466 C33.718,36.5393333 35.213,37.996 36.271,39.836 C37.329,41.676 37.858,43.746 37.858,46.046 C37.858,49.542 36.6543333,52.4553333 34.247,54.786 C31.8396667,57.1166667 28.566,58.282 24.426,58.282 L24.426,58.282 L6.761,58.282 L6.761,33.856 Z M109.984,64.216 L116.611,47.748 L145.591,47.748 L152.166,64.216 L159.48,64.216 L133.766,0.92 L128.706,0.92 L102.808,64.216 L109.984,64.216 Z M143.223,41.814 L119,41.814 L131.161,11.598 L143.223,41.814 Z M235.7,65.136 C242.048,65.136 247.077333,63.6256667 250.788,60.605 C254.498667,57.5843333 256.354,53.3293333 256.354,47.84 C256.354,44.4973333 255.779,41.7296667 254.629,39.537 C253.479,37.3443333 251.961,35.5503333 250.075,34.155 C248.189,32.7596667 246.119,31.602 243.865,30.682 C241.611,29.762 239.357,28.911 237.103,28.129 C234.849,27.347 232.779,26.4653333 230.893,25.484 C229.007,24.5026667 227.489,23.276 226.339,21.804 C225.189,20.332 224.614,18.4153333 224.614,16.054 C224.614,12.9873333 225.725667,10.5953333 227.949,8.878 C230.172333,7.16066667 233.124,6.302 236.804,6.302 C239.901333,6.302 242.615333,6.90766667 244.946,8.119 C247.276667,9.33033333 249.423333,11.1166667 251.386,13.478 L251.386,13.478 L256.032,8.878 C253.885333,6.14866667 251.194333,3.98666667 247.959,2.392 C244.723667,0.797333333 241.051333,-2.84217094e-14 236.942,-2.84217094e-14 C233.262,-2.84217094e-14 229.980667,0.667 227.098,2.001 C224.215333,3.335 221.946,5.22866667 220.29,7.682 C218.634,10.1353333 217.806,13.064 217.806,16.468 C217.806,19.7186667 218.381,22.3943333 219.531,24.495 C220.681,26.5956667 222.199,28.313 224.085,29.647 C225.971,30.981 228.041,32.0926667 230.295,32.982 C232.549,33.8713333 234.803,34.7146667 237.057,35.512 C239.311,36.3093333 241.381,37.2216667 243.267,38.249 C245.153,39.2763333 246.671,40.595 247.821,42.205 C248.971,43.815 249.546,45.8926667 249.546,48.438 C249.546,51.6886667 248.296333,54.234 245.797,56.074 C243.297667,57.914 240.024,58.834 235.976,58.834 C232.050667,58.834 228.662,58.098 225.81,56.626 C222.958,55.154 220.443333,52.9 218.266,49.864 L218.266,49.864 L213.62,54.464 C216.288,57.868 219.400667,60.4976667 222.958,62.353 C226.515333,64.2083333 230.762667,65.136 235.7,65.136 Z M325.904,64.216 L325.904,0.92 L319.142,0.92 L319.142,64.216 L325.904,64.216 Z M420.708,65.136 C425.553333,65.136 429.938667,64.2696667 433.864,62.537 C437.789333,60.8043333 441.178,58.42 444.03,55.384 L444.03,55.384 L439.384,50.738 C437.206667,53.1913333 434.538667,55.1233333 431.38,56.534 C428.221333,57.9446667 424.618,58.65 420.57,58.65 C417.012667,58.65 413.723667,58.006 410.703,56.718 C407.682333,55.43 405.068,53.6053333 402.86,51.244 C400.652,48.8826667 398.934667,46.1073333 397.708,42.918 C396.481333,39.7286667 395.868,36.2633333 395.868,32.522 C395.868,28.7806667 396.473667,25.323 397.685,22.149 C398.896333,18.975 400.613667,16.215 402.837,13.869 C405.060333,11.523 407.667,9.706 410.657,8.418 C413.647,7.13 416.920667,6.486 420.478,6.486 C424.342,6.486 427.838,7.176 430.966,8.556 C434.094,9.936 436.746667,11.8526667 438.924,14.306 L438.924,14.306 L443.57,9.66 C440.687333,6.65466667 437.329333,4.29333333 433.496,2.576 C429.662667,0.858666667 425.323333,-2.84217094e-14 420.478,-2.84217094e-14 C415.97,-2.84217094e-14 411.791667,0.835666667 407.943,2.507 C404.094333,4.17833333 400.736333,6.486 397.869,9.43 C395.001667,12.374 392.786,15.8163333 391.222,19.757 C389.658,23.6976667 388.876,27.9526667 388.876,32.522 C388.876,37.0606667 389.665667,41.308 391.245,45.264 C392.824333,49.22 395.055333,52.693 397.938,55.683 C400.820667,58.673 404.201667,60.996 408.081,62.652 C411.960333,64.308 416.169333,65.136 420.708,65.136 Z M596.47,64.216 L612.502,12.998 L628.578,64.216 L633.546,64.216 L654.016,0.92 L647.254,0.92 L631.067,52.07 L615.054,0.92 L609.948,0.92 L593.957,52.132 L577.794,0.92 L571.032,0.92 L591.502,64.216 L596.47,64.216 Z M715.608,0.92 L715.608,64.216 L722.37,64.216 L722.369,38.825 L739.114,38.824 C742.735587,38.824 745.988618,38.1147029 748.873093,36.6961088 L749.303,36.478 C752.293,34.914 754.662,32.7136667 756.41,29.877 C758.158,27.0403333 759.032,23.7024583 759.032,19.863375 C759.032,16.0242917 758.158,12.6892917 756.41,9.858375 C754.662,7.02745833 752.293,4.83 749.303,3.266 C746.313,1.702 742.916667,0.92 739.114,0.92 L739.114,0.92 L722.37,0.92 L719.978,0.92 L715.608,0.92 Z M722.369,6.854 L738.608,6.854 C741.231917,6.854 743.566896,7.37988542 745.612938,8.43165625 C747.658979,9.48342708 749.272333,10.9825 750.453,12.928875 C751.633667,14.87525 752.224,17.189625 752.224,19.872 C752.224,22.554375 751.633667,24.86875 750.453,26.815125 C749.272333,28.7615 747.658979,30.2605729 745.612938,31.3123437 C743.566896,32.3641146 741.231917,32.89 738.608,32.89 L738.608,32.89 L722.369,32.89 L722.369,6.854 Z" id="BASICWP" fill="#4B4A4A" fill-rule="nonzero"></path>
    </g>
</svg>